<?xml version="1.0" encoding="utf-8"?><!-- Uploaded to: SVG Repo, www.svgrepo.com, Generator: SVG Repo Mixer Tools -->
<svg width="800px" height="800px" viewBox="0 0 24 24" fill="none" xmlns="http://www.w3.org/2000/svg">
<path d="M14 10.5C14 11.8807 11.7614 13 9 13C6.23858 13 4 11.8807 4 10.5M14 10.5C14 9.11929 11.7614 8 9 8C6.23858 8 4 9.11929 4 10.5M14 10.5V14.5M4 10.5V14.5M20 5.5C20 4.11929 17.7614 3 15 3C13.0209 3 11.3104 3.57493 10.5 4.40897M20 5.5C20 6.42535 18.9945 7.23328 17.5 7.66554M20 5.5V14C20 14.7403 18.9945 15.3866 17.5 15.7324M20 10C20 10.7567 18.9495 11.4152 17.3999 11.755M14 14.5C14 15.8807 11.7614 17 9 17C6.23858 17 4 15.8807 4 14.5M14 14.5V18.5C14 19.8807 11.7614 21 9 21C6.23858 21 4 19.8807 4 18.5V14.5" stroke="#000000" stroke-width="2" stroke-linecap="round" stroke-linejoin="round"/>
</svg>