<?xml version="1.0" encoding="utf-8"?><!-- Uploaded to: SVG Repo, www.svgrepo.com, Generator: SVG Repo Mixer Tools -->
<svg width="800px" height="800px" viewBox="0 0 24 24" fill="none" xmlns="http://www.w3.org/2000/svg">
<path d="M10 17L8 15L10 13M14 13L16 15L14 17M13 3H8.2C7.0799 3 6.51984 3 6.09202 3.21799C5.71569 3.40973 5.40973 3.71569 5.21799 4.09202C5 4.51984 5 5.0799 5 6.2V17.8C5 18.9201 5 19.4802 5.21799 19.908C5.40973 20.2843 5.71569 20.5903 6.09202 20.782C6.51984 21 7.0799 21 8.2 21H15.8C16.9201 21 17.4802 21 17.908 20.782C18.2843 20.5903 18.5903 20.2843 18.782 19.908C19 19.4802 19 18.9201 19 17.8V9M13 3L19 9M13 3V8C13 8.55228 13.4477 9 14 9H19" stroke="#000000" stroke-width="2" stroke-linecap="round" stroke-linejoin="round"/>
</svg>