<?xml version="1.0" encoding="utf-8"?><!-- Uploaded to: SVG Repo, www.svgrepo.com, Generator: SVG Repo Mixer Tools -->
<svg width="800px" height="800px" viewBox="0 0 24 24" fill="none" xmlns="http://www.w3.org/2000/svg">
<path d="M3.11259 9.00017H20.8875M7.04871 3.05065L12.0001 9.00023L16.9598 3.05482M20.6861 8.52922L17.2375 3.35641C17.1507 3.22616 17.1073 3.16104 17.0499 3.11389C16.9992 3.07216 16.9406 3.04084 16.8778 3.02174C16.8067 3.00017 16.7284 3.00017 16.5719 3.00017H7.4282C7.27166 3.00017 7.19339 3.00017 7.12235 3.02174C7.05945 3.04084 7.00094 3.07216 6.95016 3.11389C6.8928 3.16104 6.84939 3.22616 6.76256 3.35641L3.31402 8.52922C3.20098 8.69878 3.14446 8.78356 3.1242 8.87476C3.10631 8.95532 3.10863 9.03905 3.13096 9.11849C3.15625 9.20843 3.21738 9.28995 3.33966 9.45298L11.3601 20.1468C11.5772 20.4363 11.6857 20.5811 11.8188 20.6328C11.9354 20.6782 12.0647 20.6782 12.1813 20.6328C12.3144 20.5811 12.4229 20.4363 12.64 20.1468L20.6604 9.45298C20.7827 9.28995 20.8439 9.20843 20.8691 9.11849C20.8915 9.03905 20.8938 8.95532 20.8759 8.87476C20.8556 8.78356 20.7991 8.69878 20.6861 8.52922Z" stroke="#000000" stroke-width="2" stroke-linecap="round" stroke-linejoin="round"/>
</svg>