<?xml version="1.0" encoding="utf-8"?><!-- Uploaded to: SVG Repo, www.svgrepo.com, Generator: SVG Repo Mixer Tools -->
<svg width="800px" height="800px" viewBox="0 0 24 24" fill="none" xmlns="http://www.w3.org/2000/svg">
<path d="M19.5 12C18.1193 12 17 10.8807 17 9.5C17 8.11929 18.1193 7 19.5 7M19.5 12C20.8807 12 22 10.8807 22 9.5C22 8.11929 20.8807 7 19.5 7M19.5 12V21M19.5 7V3M12 18.9998C10.6193 18.9998 9.5 17.8805 9.5 16.4998C9.5 15.1191 10.6193 13.9998 12 13.9998M12 18.9998C13.3807 18.9998 14.5 17.8805 14.5 16.4998C14.5 15.1191 13.3807 13.9998 12 13.9998M12 18.9998V20.9996M12 13.9998V3.00012M4.5 10C3.11929 10 2 8.88071 2 7.5C2 6.11929 3.11929 5 4.5 5M4.5 10C5.88071 10 7 8.88071 7 7.5C7 6.11929 5.88071 5 4.5 5M4.5 10V21M4.5 5V3" stroke="#000000" stroke-width="2" stroke-linecap="round" stroke-linejoin="round"/>
</svg>