<?xml version="1.0" encoding="UTF-8" standalone="no"?>
<!-- Created with Inkscape (http://www.inkscape.org/) -->

<svg
   version="1.1"
   id="svg2"
   width="512"
   height="512"
   viewBox="0 0 512 512"
   sodipodi:docname="ksoloti_icon.svg"
   xml:space="preserve"
   inkscape:version="1.2.2 (b0a8486541, 2022-12-01)"
   xmlns:inkscape="http://www.inkscape.org/namespaces/inkscape"
   xmlns:sodipodi="http://sodipodi.sourceforge.net/DTD/sodipodi-0.dtd"
   xmlns="http://www.w3.org/2000/svg"
   xmlns:svg="http://www.w3.org/2000/svg"><defs
     id="defs6" /><sodipodi:namedview
     id="namedview4"
     pagecolor="#ffffff"
     bordercolor="#000000"
     borderopacity="0.25"
     inkscape:showpageshadow="2"
     inkscape:pageopacity="0.0"
     inkscape:pagecheckerboard="0"
     inkscape:deskcolor="#d1d1d1"
     showgrid="false"
     inkscape:zoom="1.1186191"
     inkscape:cx="155.9959"
     inkscape:cy="282.93813"
     inkscape:window-width="1920"
     inkscape:window-height="1019"
     inkscape:window-x="1920"
     inkscape:window-y="0"
     inkscape:window-maximized="1"
     inkscape:current-layer="g8" /><g
     inkscape:groupmode="layer"
     inkscape:label="Image"
     id="g8"><path
       style="fill:#000000;stroke-width:1"
       d="M -9.9e-6,256.00001 V -9.95e-6 H 256 512.00001 V 256.00001 v 256 H 256 -9.9e-6 Z m 59.7621139,78.33081 2.815669,-2.81396 0.455105,-23.87753 0.455114,-23.87755 13.12287,-0.25349 13.12288,-0.25346 26.926918,26.81182 c 18.03284,17.95578 27.7809,27.02326 29.51245,27.45196 3.57716,0.88563 9.2389,-0.99772 11.45013,-3.80887 2.46009,-3.12749 3.27505,-7.92744 1.9068,-11.23067 -0.60769,-1.46712 -11.86113,-13.2977 -25.00762,-26.2902 l -23.90273,-23.62272 17.13266,-17.11486 c 9.42297,-9.41317 17.6044,-18.25372 18.18097,-19.64568 2.23597,-5.39811 -1.17717,-12.50638 -6.91427,-14.3998 -6.35232,-2.09645 -7.68916,-1.17356 -29.20074,20.15883 l -20.115896,19.94833 -13.107211,-0.25338 -13.107211,-0.25337 -0.455114,-40.80778 -0.455105,-40.80777 -3.086794,-2.75738 c -2.809814,-2.50997 -3.529771,-2.72067 -8.023553,-2.34799 -3.811306,0.31605 -5.493909,0.96648 -7.380757,2.85314 l -2.444011,2.44377 -0.242912,75.43991 -0.242923,75.43991 2.444235,2.90481 c 3.09567,3.67898 5.328896,4.62672 9.789494,4.15442 2.434848,-0.2578 4.443573,-1.26364 6.371552,-3.19044 z m 224.123196,2.41913 c 1.0692,-0.60803 8.28629,-7.25745 16.03803,-14.77651 20.22451,-19.61743 20.24185,-19.09839 -1.32696,-39.66962 l -14.6955,-14.01583 -24.24859,-0.45511 -24.2486,-0.4551 -6.29455,-5.68329 -6.29456,-5.68328 6.32831,-6.37716 6.32829,-6.37717 35.52308,-0.003 c 34.02429,-0.003 35.65021,-0.081 38.53609,-1.84037 7.09803,-4.32756 6.85771,-15.67248 -0.40209,-18.98028 -1.93955,-0.88371 -49.55077,-1.50022 -81.24976,-1.05209 -1.55921,0.022 -6.09603,3.85472 -15.92888,13.45659 -7.56179,7.38417 -14.24621,14.24497 -14.85424,15.24622 -1.51282,2.49112 -1.44504,8.21859 0.13256,11.19544 1.41027,2.6612 27.15809,27.54708 29.55213,28.5628 0.80202,0.34029 11.84023,0.64749 24.52934,0.68267 l 23.07111,0.064 6.056,5.54922 c 3.33081,3.05206 6.05599,6.02166 6.05599,6.59911 0,0.57743 -2.69718,3.60989 -5.99374,6.73878 l -5.99375,5.68889 H 239.266 c -38.66757,0 -39.1858,0.067 -41.95986,5.43154 -1.82305,3.52539 -1.75155,8.67851 0.16541,11.92368 3.14697,5.32738 3.42596,5.35998 45.78541,5.34735 28.65342,-0.009 39.18852,-0.29819 40.62842,-1.11705 z m 152.96211,0.20511 c 2.54224,-0.95737 27.92735,-25.12514 30.05876,-28.61728 0.8095,-1.32631 1.1111,-9.23255 1.1111,-29.1271 0,-19.8946 -0.3016,-27.80082 -1.1111,-29.12713 -2.13141,-3.49215 -27.51652,-27.6599 -30.05876,-28.61726 -3.74001,-1.40844 -53.11938,-1.2209 -56.31129,0.21388 -3.8017,1.70885 -29.07967,26.18526 -30.4637,29.49768 -1.77145,4.23968 -1.76749,51.84647 0.004,56.05139 1.16644,2.76766 26.23166,27.36068 30.16826,29.59989 2.42687,1.38045 52.97215,1.4929 56.60208,0.12589 z m -56.40467,-30.23879 -8.90478,-8.39095 0.0302,-19.26819 0.0302,-19.26821 8.86559,-8.26602 8.86559,-8.26602 h 19.59592 19.59594 l 8.85759,8.89096 8.85759,8.89095 v 18.20524 18.20523 l -8.89095,8.85759 -8.89095,8.8576 -19.55351,-0.0285 -19.55348,-0.0286 -8.90481,-8.39094 z"
       id="path12"
       sodipodi:nodetypes="cccccccccscccccssssscsssscccccssscccssscsscccccccccssssssscssscsssscccsssssscscccccccccccccccccccc" /></g></svg>
