<?xml version="1.0" encoding="UTF-8" standalone="no"?>
<!-- Created with Inkscape (http://www.inkscape.org/) -->

<svg
   width="512"
   height="512"
   viewBox="0 0 512 512"
   version="1.1"
   id="svg5"
   inkscape:version="1.1.2 (0a00cf5339, 2022-02-04)"
   sodipodi:docname="axoloti_icon.svg"
   xmlns:inkscape="http://www.inkscape.org/namespaces/inkscape"
   xmlns:sodipodi="http://sodipodi.sourceforge.net/DTD/sodipodi-0.dtd"
   xmlns="http://www.w3.org/2000/svg"
   xmlns:svg="http://www.w3.org/2000/svg">
  <sodipodi:namedview
     id="namedview7"
     pagecolor="#ffffff"
     bordercolor="#666666"
     borderopacity="1.0"
     inkscape:pageshadow="2"
     inkscape:pageopacity="0.0"
     inkscape:pagecheckerboard="0"
     showgrid="false"
     fit-margin-top="0"
     fit-margin-left="0"
     fit-margin-right="0"
     fit-margin-bottom="0"
     inkscape:zoom="0.86570084"
     inkscape:cx="-80.281775"
     inkscape:cy="264.52556"
     inkscape:window-width="1920"
     inkscape:window-height="1019"
     inkscape:window-x="0"
     inkscape:window-y="0"
     inkscape:window-maximized="1"
     inkscape:current-layer="layer1" />
  <defs
     id="defs2" />
  <g
     inkscape:label="Layer 1"
     inkscape:groupmode="layer"
     id="layer1"
     transform="translate(-31.534456,-25.071373)">
    <g
       id="g1632"
       transform="matrix(3.7795278,0,0,3.7795278,-87.650896,-69.686577)"
       style="stroke-width:0.264583">
      <rect
         style="fill:#dddddd;fill-opacity:1;stroke:none;stroke-width:0.0700042"
         id="rect387"
         width="135.46666"
         height="135.46666"
         x="31.534456"
         y="25.071373"
         ry="13.546662" />
      <g
         id="g1773"
         transform="matrix(1.0599442,0,0,1.0599442,-5.9504535,-5.6955534)"
         style="stroke-width:0.24962">
        <rect
           style="fill:#ffffff;fill-opacity:1;stroke:none;stroke-width:4.40304;stroke-linecap:round;stroke-linejoin:round"
           id="rect1419"
           width="69.08593"
           height="46.549763"
           x="64.753784"
           y="73.318886"
           ry="23.274881" />
        <path
           style="fill:#000000;stroke-width:0.24962"
           d="m 48.46779,130.37553 c -0.66568,-0.66567 -0.66546,-1.22566 10e-4,-2.7806 l 0.53023,-1.23697 -0.81512,0.68587 c -2.20457,1.85503 -4.47547,-0.42123 -2.4889,-2.49477 0.90192,-0.9414 0.78451,-0.97218 -0.7901,-0.20717 -1.46335,0.71094 -2.50485,0.47089 -2.90602,-0.66981 -0.50518,-1.43647 0.0554,-1.85946 6.07197,-4.58187 5.55347,-2.51285 5.55739,-2.51522 7.83728,-4.74252 l 2.28104,-2.2284 h 5.0632 5.06319 l -1.02981,-1.52136 c -2.95417,-4.36421 -4.26594,-8.66464 -4.26594,-13.985219 0,-3.43793 0.48259,-6.195243 1.58049,-9.030232 l 0.7416,-1.914935 -0.83032,-0.504039 c -3.8461,-2.334763 -9.18781,-5.266822 -8.88757,-4.878374 0.20449,0.264567 0.64251,0.817589 0.97338,1.228937 0.72585,0.902382 0.777,2.054045 0.11774,2.650669 -0.57352,0.519028 -1.62773,0.569952 -2.2183,0.107154 -0.72841,-0.57082 -8.15962,-9.725144 -8.389,-10.334209 -0.12011,-0.318918 -0.12124,-0.83996 -0.002,-1.15787 0.45306,-1.213035 0.87943,-1.216739 7.84272,-0.06813 5.93656,0.979249 6.61465,1.144053 7.15353,1.738619 0.74103,0.817605 0.74496,1.15946 0.0238,2.07623 -0.54625,0.694444 -0.64257,0.718484 -2.1812,0.54441 -0.88535,-0.100166 -1.54494,-0.117338 -1.46576,-0.03816 0.26995,0.26995 9.32019,5.453169 9.52159,5.453169 0.11036,0 0.83753,-0.786916 1.61594,-1.7487 0.77841,-0.961787 2.26242,-2.431455 3.2978,-3.26593 l 1.88251,-1.517226 -2.68768,-4.660945 c -1.47823,-2.563521 -2.77235,-4.745617 -2.87584,-4.849101 -0.10348,-0.103483 -0.11308,0.359543 -0.0213,1.028946 0.23399,1.707103 -0.016,2.451812 -0.95337,2.840083 -0.66818,0.27677 -0.89849,0.26208 -1.4385,-0.09175 -0.81401,-0.53336 -0.73126,-0.214071 -1.99392,-7.692836 -0.97716,-5.787771 -1.03441,-6.384131 -0.66671,-6.945313 0.29628,-0.452178 0.6508,-0.613894 1.34579,-0.613894 0.8257,0 1.55624,0.503415 5.84916,4.030612 2.6981,2.216835 5.0786,4.2946 5.29001,4.617252 0.69064,1.054055 -0.18003,2.464636 -1.52128,2.464636 -0.48066,0 -1.11707,-0.308555 -1.70978,-0.828961 -0.51927,-0.45593 -0.98503,-0.783352 -1.03501,-0.727604 -0.05,0.05575 1.16396,2.267317 2.69764,4.914603 l 2.78851,4.81325 0.68469,-0.351393 c 1.48077,-0.759952 5.0712,-1.706729 7.57605,-1.997761 1.79274,-0.208293 6.8576,-0.270594 15.8628,-0.195119 14.38661,0.120576 14.65898,0.145626 18.71719,1.721432 l 2.01365,0.781902 2.7976,-4.856731 c 1.53865,-2.671202 2.79757,-4.926526 2.79757,-5.011833 0,-0.08531 -0.50407,0.276363 -1.12016,0.803709 -1.35332,1.158388 -2.37963,1.184778 -3.19911,0.08225 -0.43505,-0.585301 -0.48171,-0.837211 -0.24951,-1.346848 0.1571,-0.344792 2.55961,-2.498508 5.33892,-4.78604 4.7457,-3.905983 5.1135,-4.154154 6.0423,-4.077107 1.72151,0.1428 1.7428,0.49395 0.479,7.899624 -0.60958,3.572071 -1.20203,6.646272 -1.31655,6.831563 -0.58045,0.939188 -2.62289,0.745159 -2.94828,-0.280086 -0.0935,-0.294616 -0.0951,-1.207397 -0.004,-2.028404 0.13564,-1.216215 0.10834,-1.397421 -0.14737,-0.978175 -0.17262,0.283014 -1.47472,2.529864 -2.89354,4.993002 l -2.57968,4.47843 1.89407,1.526529 c 1.04174,0.839589 2.53095,2.313443 3.30936,3.27523 0.77841,0.961784 1.49614,1.7487 1.59495,1.7487 0.18439,0 9.30354,-5.214123 9.54975,-5.460339 0.0752,-0.07523 -0.58758,-0.05484 -1.47293,0.04533 -1.53863,0.174074 -1.63495,0.150034 -2.1812,-0.54441 -0.72113,-0.91677 -0.71721,-1.258625 0.0238,-2.07623 0.53873,-0.594394 1.21591,-0.75919 7.12426,-1.733722 3.59092,-0.592293 6.71962,-1.003728 6.95266,-0.914302 0.54405,0.208772 0.93818,0.950063 0.93818,1.764549 0,0.434665 -1.28458,2.205521 -3.99513,5.507497 -2.19733,2.676761 -4.18461,5.015664 -4.4162,5.197565 -0.6136,0.481965 -1.75864,0.404498 -2.26328,-0.153125 -0.61144,-0.675635 -0.54563,-1.722848 0.1637,-2.604698 0.33087,-0.411348 0.77736,-0.983975 0.99219,-1.272506 0.37915,-0.50922 0.37121,-0.512387 -0.27086,-0.108035 -0.3638,0.229108 -1.97115,1.164995 -3.57187,2.079747 -1.60073,0.914749 -3.58202,2.065409 -4.40285,2.557018 l -1.49244,0.893839 0.74378,1.916639 c 1.26569,3.261534 1.66286,5.880213 1.51104,9.962723 -0.193,5.189474 -1.38726,8.891934 -4.21081,13.054434 l -1.03198,1.52136 h 5.07101 5.07101 l 2.28104,2.2284 c 2.27989,2.2273 2.28381,2.22967 7.83728,4.74252 6.01659,2.72241 6.57715,3.1454 6.07197,4.58187 -0.40117,1.1407 -1.44267,1.38075 -2.90602,0.66981 -1.55368,-0.75484 -1.68538,-0.73271 -0.87299,0.14667 0.3697,0.40018 0.74873,0.94458 0.8423,1.20979 0.176,0.49881 -0.21766,1.48845 -0.72747,1.82886 -0.60149,0.40162 -1.73387,0.17882 -2.54041,-0.49985 l -0.83468,-0.70233 0.45378,1.03306 c 0.73252,1.66765 0.76597,2.36812 0.14283,2.99126 -0.62454,0.62454 -1.56016,0.71944 -2.21443,0.22462 -0.24051,-0.1819 -1.57603,-2.83104 -2.96782,-5.88698 -2.39819,-5.26567 -2.6232,-5.64965 -4.30253,-7.34218 l -1.77201,-1.78594 h -6.02407 -6.02408 l -1.20526,0.92 c -2.87215,2.19236 -6.72444,3.82538 -10.63119,4.50666 -3.29139,0.57397 -28.0782,0.57397 -31.36958,0 -3.90676,-0.68128 -7.75904,-2.3143 -10.63119,-4.50666 l -1.20526,-0.92 H 65.7224 59.69832 l -1.772,1.78594 c -1.67934,1.69253 -1.90435,2.07651 -4.30253,7.34218 -1.39179,3.05594 -2.72731,5.70508 -2.96783,5.88698 -0.64523,0.488 -1.58723,0.40257 -2.18824,-0.19844 z m 67.98768,-13.19207 c 7.68807,-2.33312 13.30181,-8.21717 15.12828,-15.85672 0.72959,-3.051634 0.59185,-7.959456 -0.30229,-10.770995 -2.37601,-7.471211 -7.78651,-12.673867 -15.34492,-14.755473 -1.86438,-0.513451 -2.7844,-0.550746 -15.21355,-0.616696 -7.27604,-0.03861 -14.21043,0.03754 -15.40976,0.169219 -4.68139,0.513988 -8.9337,2.556417 -12.37228,5.942534 -3.30363,3.253223 -5.08175,6.385649 -6.05579,10.668174 -0.49093,2.158492 -0.55768,6.376095 -0.13711,8.663957 1.2065,6.56318 6.35114,12.93077 12.55797,15.54319 1.56663,0.65939 4.02831,1.36457 5.54198,1.58758 0.43656,0.0643 7.28265,0.0961 15.21354,0.0706 14.15593,-0.0455 14.45591,-0.0573 16.39393,-0.64541 z M 90.00737,98.182364 c -1.153538,-0.03845 -1.41975,-2.058156 -0.57448,-2.823112 0.43112,-0.390152 1.50814,-0.437882 9.88087,-0.437882 8.76765,0 9.42634,0.03241 9.83489,0.483854 0.53706,0.593444 0.56493,1.622403 0.0626,2.309846 -0.35782,0.489646 -0.80501,0.515935 -9.59115,0.563875 -5.0687,0.02766 -9.380081,-0.08883 -9.6127,-0.09658 z M 76.88404,90.053036 c -0.75789,-0.757883 -0.89959,-1.088096 -0.89959,-2.096365 0,-1.434819 0.86553,-2.632892 2.22658,-3.082083 1.42786,-0.471236 2.99028,0.285401 3.64482,1.765083 0.42968,0.971373 0.46423,1.305843 0.2134,2.065869 -0.45555,1.380313 -1.647,2.24708 -3.08885,2.24708 -1.00827,0 -1.33848,-0.1417 -2.09636,-0.899584 z m 40.87322,0.501891 c -0.9535,-0.51817 -1.64988,-2.062366 -1.43841,-3.18961 0.2001,-1.066662 1.43554,-2.379305 2.41572,-2.566675 1.98727,-0.379891 3.81655,1.133761 3.81655,3.158029 0,1.008269 -0.1417,1.338482 -0.89959,2.096365 -0.75305,0.753055 -1.08705,0.897859 -2.05052,0.88899 -0.63301,-0.0058 -1.4627,-0.18002 -1.84375,-0.387099 z"
           id="path1099"
           sodipodi:nodetypes="cccsssssscccssscsssssscsscssssscsscssssssssscscssssccssssssssscsscsssssssssssssssssscssscccsssssssscssssscccsssscccssscccsssssssssssccsssssssssssssssssssscs" />
      </g>
    </g>
  </g>
</svg>
