<?xml version="1.0" encoding="UTF-8" standalone="no"?>
<!-- Created with Inkscape (http://www.inkscape.org/) -->

<svg
   width="135.46667mm"
   height="135.46671mm"
   viewBox="0 0 135.46667 135.46671"
   version="1.1"
   id="svg5"
   inkscape:version="1.1.2 (0a00cf5339, 2022-02-04)"
   sodipodi:docname="ksoloti_keyboard_icon.svg"
   xmlns:inkscape="http://www.inkscape.org/namespaces/inkscape"
   xmlns:sodipodi="http://sodipodi.sourceforge.net/DTD/sodipodi-0.dtd"
   xmlns="http://www.w3.org/2000/svg"
   xmlns:svg="http://www.w3.org/2000/svg">
  <sodipodi:namedview
     id="namedview7"
     pagecolor="#ffffff"
     bordercolor="#666666"
     borderopacity="1.0"
     inkscape:pageshadow="2"
     inkscape:pageopacity="0.0"
     inkscape:pagecheckerboard="0"
     inkscape:document-units="mm"
     showgrid="false"
     fit-margin-top="0"
     fit-margin-left="0"
     fit-margin-right="0"
     fit-margin-bottom="0"
     inkscape:zoom="0.67403899"
     inkscape:cx="-71.954295"
     inkscape:cy="212.1539"
     inkscape:window-width="1920"
     inkscape:window-height="1019"
     inkscape:window-x="0"
     inkscape:window-y="0"
     inkscape:window-maximized="1"
     inkscape:current-layer="layer1" />
  <defs
     id="defs2" />
  <g
     inkscape:label="Layer 1"
     inkscape:groupmode="layer"
     id="layer1"
     transform="translate(-120.5688,-93.320175)">
    <g
       id="g3876">
      <rect
         style="fill:#dddddd;fill-opacity:1;stroke:none;stroke-width:17.639;stroke-linecap:round;stroke-linejoin:round"
         id="rect1133"
         width="135.46666"
         height="135.46666"
         x="120.5688"
         y="93.320175"
         ry="0" />
      <path
         style="fill:#000000;stroke-width:0.999998"
         d="M 188.30214,228.78688 H 120.5688 V 161.05355 93.320176 h 3.17498 3.17505 v 64.558324 64.55835 h 17.99168 17.9916 v -25.40002 -25.39996 h -5.29163 -5.2917 V 132.47851 93.320176 h 13.75838 13.7583 v 39.158334 39.15836 h -5.29163 -5.2917 v 25.39996 25.40002 h 16.93336 16.93335 v -25.40002 -25.39996 h -5.2917 -5.29163 V 132.47851 93.320176 h 13.7583 13.75838 v 39.158334 39.15836 h -5.2917 -5.2917 v 25.39996 25.40002 h 16.93335 16.93335 V 157.8785 93.320176 h 3.17498 3.17505 v 64.558324 64.55835 h 3.17497 3.17498 v 3.17498 3.17505 z"
         id="path954" />
    </g>
  </g>
</svg>
